<?xml version="1.0" encoding="UTF-8" standalone="no"?>
<!-- Created with Inkscape (http://www.inkscape.org/) -->

<svg
   width="1024"
   height="1023.9999"
   viewBox="0 0 270.93332 270.93333"
   version="1.1"
   id="svg5"
   xml:space="preserve"
   xmlns="http://www.w3.org/2000/svg"
   xmlns:svg="http://www.w3.org/2000/svg"><defs
     id="defs2"><rect
       x="2.5518415"
       y="738.75812"
       width="1019.4607"
       height="204.14732"
       id="rect3636-4-8" /></defs><g
     id="layer1-3-1"
     transform="translate(0,-5.2916665)"
     style="display:inline"><rect
       style="fill:#000000;fill-opacity:1;stroke:#000000;stroke-width:17.6363;stroke-linecap:round;stroke-linejoin:round;stroke-miterlimit:4;stroke-dasharray:none;stroke-opacity:1;paint-order:normal"
       id="rect3890-9"
       width="253.29688"
       height="124.74271"
       x="8.8182373"
       y="39.409836" /><g
       aria-label="SELECT"
       transform="matrix(0.81996564,0,0,0.89208434,-5.8171636,-492.49772)"
       id="text3634-2-1"
       style="font-weight:bold;font-size:85.3333px;-inkscape-font-specification:'sans-serif, Bold';letter-spacing:-2.9659px;white-space:pre;shape-inside:url(#rect3636-4-8);display:inline;stroke-width:68;stroke-linecap:round;stroke-linejoin:round"><path
         d="m 60.136044,797.10998 q 0,9.16666 -7.791664,14.91666 -7.749996,5.70833 -21.083324,5.70833 -7.70833,0 -13.458328,-1.33334 -5.708331,-1.375 -10.7083289,-3.45833 v -14.87499 h 1.7499993 q 4.9583316,3.95833 11.0833286,6.08333 6.166664,2.125 11.833329,2.125 1.458332,0 3.833331,-0.25 2.374999,-0.25 3.874999,-0.83333 1.833332,-0.75 2.999998,-1.875 1.208333,-1.125 1.208333,-3.33334 0,-2.04166 -1.749999,-3.49999 -1.708333,-1.5 -5.041665,-2.29167 -3.499998,-0.83333 -7.416663,-1.54167 -3.874999,-0.75 -7.291664,-1.875 -7.83333,-2.54166 -11.291662,-6.87499 -3.416665,-4.375 -3.416665,-10.83333 0,-8.66666 7.749997,-14.125 7.791663,-5.49999 19.999991,-5.49999 6.124998,0 12.083329,1.20833 5.999997,1.16667 10.374995,2.95833 v 14.29166 h -1.708332 q -3.749999,-3 -9.20833,-5 -5.416664,-2.04166 -11.083328,-2.04166 -2,0 -3.999999,0.29167 -1.958332,0.25 -3.791665,0.99999 -1.624999,0.625 -2.791665,1.91667 -1.166667,1.25 -1.166667,2.875 0,2.45833 1.875,3.79166 1.874999,1.29167 7.08333,2.375 3.416665,0.70834 6.541664,1.375 3.166665,0.66667 6.791664,1.83334 7.124997,2.33333 10.499995,6.37499 3.416666,4 3.416666,10.41667 z"
         id="path4757" /><path
         d="M 113.00345,816.60997 H 68.128471 v -62.04164 h 44.874979 v 11.99999 H 84.045131 v 10.70833 h 26.874989 v 12 H 84.045131 v 15.33332 h 28.958319 z"
         id="path4759" /><path
         d="m 168.2042,816.60997 h -44.74998 v -62.04164 h 15.99999 v 50.04164 h 28.74999 z"
         id="path4761" /><path
         d="m 219.73827,816.60997 h -44.87498 v -62.04164 h 44.87498 v 11.99999 h -28.95832 v 10.70833 h 26.87499 v 12 h -26.87499 v 15.33332 h 28.95832 z"
         id="path4763" /><path
         d="m 258.23069,817.8183 q -6.91667,0 -12.79166,-2.04167 -5.83333,-2.04166 -10.04167,-6.08333 -4.20833,-4.04166 -6.54166,-10.08333 -2.29167,-6.04166 -2.29167,-13.95832 0,-7.375 2.20834,-13.375 2.20833,-6 6.41666,-10.29166 4.04167,-4.125 10,-6.375 5.99999,-2.25 13.08332,-2.25 3.91667,0 7.04167,0.45834 3.16666,0.41666 5.83333,1.125 2.79166,0.79166 5.04166,1.79166 2.29167,0.95833 4,1.79167 v 15.04166 h -1.83333 q -1.16667,-1 -2.95833,-2.375 -1.75,-1.375 -4,-2.70833 -2.29167,-1.33334 -4.95833,-2.25 -2.66667,-0.91667 -5.70833,-0.91667 -3.375,0 -6.41667,1.08333 -3.04166,1.04167 -5.62499,3.5 -2.45834,2.375 -4,6.29167 -1.5,3.91666 -1.5,9.49999 0,5.83333 1.625,9.75 1.66666,3.91666 4.16666,6.16666 2.54167,2.29167 5.66667,3.29167 3.12499,0.95833 6.16666,0.95833 2.91667,0 5.75,-0.875 2.875,-0.875 5.29166,-2.375 2.04167,-1.20833 3.79167,-2.58333 1.75,-1.375 2.875,-2.375 h 1.66666 v 14.83333 q -2.33333,1.04166 -4.45833,1.95833 -2.125,0.91667 -4.45833,1.58333 -3.04167,0.875 -5.70833,1.33334 -2.66667,0.45833 -7.33333,0.45833 z"
         id="path4765" /><path
         d="m 337.51474,766.56832 h -19.375 v 50.04165 h -15.99999 v -50.04165 h -19.37499 v -11.99999 h 54.74998 z"
         id="path4767" /></g></g></svg>
