<?xml version="1.0" encoding="UTF-8" standalone="no"?>
<!-- Created with Inkscape (http://www.inkscape.org/) -->

<svg
   width="1024"
   height="1023.9999"
   viewBox="0 0 270.93332 270.93333"
   version="1.1"
   id="svg5"
   xml:space="preserve"
   xmlns="http://www.w3.org/2000/svg"
   xmlns:svg="http://www.w3.org/2000/svg"><defs
     id="defs2"><rect
       x="2.5518415"
       y="738.75812"
       width="1019.4607"
       height="204.14732"
       id="rect3636-3" /></defs><g
     id="layer1-8"
     transform="translate(0,-5.2916665)"
     style="display:inline"><path
       style="fill:#000000;fill-opacity:1;stroke:#000000;stroke-width:17.9978;stroke-linecap:round;stroke-linejoin:round;stroke-miterlimit:4;stroke-dasharray:none;stroke-opacity:1;paint-order:normal"
       d="M 8.9988692,36.791664 V 166.46895 L 261.93714,101.6303 Z"
       id="path323-6" /><g
       aria-label="START"
       transform="matrix(0.89208434,0,0,0.89208434,-6.3288024,-492.49772)"
       id="text3634-7"
       style="font-weight:bold;font-size:85.3333px;-inkscape-font-specification:'sans-serif, Bold';white-space:pre;shape-inside:url(#rect3636-3);display:inline;stroke-width:68;stroke-linecap:round;stroke-linejoin:round"><path
         d="m 60.136044,797.10998 q 0,9.16666 -7.791664,14.91666 -7.749996,5.70833 -21.083324,5.70833 -7.70833,0 -13.458328,-1.33334 -5.708331,-1.375 -10.7083289,-3.45833 v -14.87499 h 1.7499993 q 4.9583316,3.95833 11.0833286,6.08333 6.166664,2.125 11.833329,2.125 1.458332,0 3.833331,-0.25 2.374999,-0.25 3.874999,-0.83333 1.833332,-0.75 2.999998,-1.875 1.208333,-1.125 1.208333,-3.33334 0,-2.04166 -1.749999,-3.49999 -1.708333,-1.5 -5.041665,-2.29167 -3.499998,-0.83333 -7.416663,-1.54167 -3.874999,-0.75 -7.291664,-1.875 -7.83333,-2.54166 -11.291662,-6.87499 -3.416665,-4.375 -3.416665,-10.83333 0,-8.66666 7.749997,-14.125 7.791663,-5.49999 19.999991,-5.49999 6.124998,0 12.083329,1.20833 5.999997,1.16667 10.374995,2.95833 v 14.29166 h -1.708332 q -3.749999,-3 -9.20833,-5 -5.416664,-2.04166 -11.083328,-2.04166 -2,0 -3.999999,0.29167 -1.958332,0.25 -3.791665,0.99999 -1.624999,0.625 -2.791665,1.91667 -1.166667,1.25 -1.166667,2.875 0,2.45833 1.875,3.79166 1.874999,1.29167 7.08333,2.375 3.416665,0.70834 6.541664,1.375 3.166665,0.66667 6.791664,1.83334 7.124997,2.33333 10.499995,6.37499 3.416666,4 3.416666,10.41667 z"
         id="path4733" /><path
         d="m 119.63602,766.56832 h -19.37499 v 50.04165 H 84.261032 V 766.56832 H 64.88604 v -11.99999 h 54.74998 z"
         id="path4735" /><path
         d="m 186.59432,816.60997 h -16.54166 l -4.29167,-12.54166 H 142.761 l -4.29166,12.54166 h -16.125 L 145.261,754.56833 h 18.41666 z m -24.70833,-23.91666 -7.62499,-22.24999 -7.625,22.24999 z"
         id="path4737" /><path
         d="m 230.30263,773.56832 q 0,-2.33333 -0.95833,-4 -0.95834,-1.66667 -3.29167,-2.625 -1.625,-0.66667 -3.79166,-0.79167 -2.16667,-0.16666 -5.04167,-0.16666 h -5.79166 v 16.70832 h 4.91666 q 3.83333,0 6.41667,-0.375 2.58333,-0.375 4.33333,-1.70833 1.66666,-1.29166 2.41666,-2.83333 0.79167,-1.58333 0.79167,-4.20833 z m 24.95832,43.04165 h -19.54166 l -16.91666,-22.74999 h -7.37499 v 22.74999 h -15.91666 v -62.04164 h 26.83332 q 5.5,0 9.45833,0.625 3.95833,0.625 7.41666,2.70833 3.5,2.08333 5.54167,5.41666 2.08333,3.29167 2.08333,8.29167 0,6.87499 -3.20833,11.20832 -3.16667,4.33334 -9.08333,7.20833 z"
         id="path4739" /><path
         d="M 310.80259,766.56832 H 291.4276 v 50.04165 h -15.99999 v -50.04165 h -19.37499 v -11.99999 h 54.74997 z"
         id="path4741" /></g></g></svg>
